<svg width="800" height="195" viewBox="0 0 800 195" fill="none"
  xmlns="http://www.w3.org/2000/svg">
  <g clip-path="url(#clip0_4480_9835)">
    <path d="M772.989 0L745.928 27.0612H745.898L738.45 34.5088L730.992 27.0612H730.982L723.755 19.8336L716.527 27.0612L694.364 49.224L672.202 27.0612H672.192L650.089 4.95839V34.2889L642.861 27.0612H565.356L553.89 38.5275V27.0612H502.427L495.099 34.3888V34.3688L485.392 44.0757L470.727 29.4204L449.154 50.9934L447.075 53.0727L442.096 58.0411L407.178 23.1225L386.474 43.8258V43.8657L362.422 19.8136L355.175 27.0612H355.155H267.003L258.176 35.8983V7.34761L216.66 48.8641V37.3179L180.041 0.709769L152.261 28.4907V35.8983L143.423 27.0612H90.7005V27.0512L90.6905 27.0712L63.6193 0L26.3015 37.3179V140.174L0 166.476L26.9812 193.467L26.9712 193.477L28.4607 194.957H50.2037L90.6705 154.49V141.234L99.6376 150.201H183.031V141.104L192.138 150.201L199.245 157.309L206.353 150.201L227.396 129.168V150.201H310.739L333.032 127.908L355.335 150.201H379.907V133.407L422.923 176.433H422.933L448.254 151.111V125.399L473.056 150.201H494.089L521.371 177.482L550.761 150.211H609.542L619.079 140.664L655.707 177.292L682.788 150.211H760.683L800 110.894V88.7411V64.1292V48.3743V27.0612V27.0112L772.989 0Z" fill="#101010"/>
    <path d="M333.032 73.956V103.346L362.422 132.737V86.132L383.195 106.915L403.989 86.132L362.422 44.5755L333.032 73.956Z" fill="#3BB4B4"/>
    <path d="M403.989 44.5755V86.132V132.737L433.369 162.127V73.956L403.989 44.5755Z" fill="#3BB4B4"/>
    <path d="M274.261 103.346L288.956 88.6512H274.261V73.9559H303.641L303.651 73.9459V73.9559L333.032 44.5655H303.651V44.5755L303.641 44.5655H274.261L244.87 73.9559V103.346V132.737H274.261H303.651L333.032 103.346H303.651H274.261Z" fill="#3BB4B4"/>
    <path d="M199.105 132.737L199.125 132.707L199.155 132.737V132.687L219.889 111.954L240.662 91.1704V49.6139L199.155 91.1304V44.5755L169.765 15.1851V103.346L199.105 132.687V132.737Z" fill="#3BB4B4"/>
    <path d="M165.566 73.976L136.176 44.5955H77.3948V103.366L106.785 132.757H165.566V73.976ZM106.785 103.366V73.976H136.176V103.366H106.785Z" fill="#3BB4B4"/>
    <path d="M73.1962 15.1851L43.8058 44.5755V147.432L14.4253 176.813H43.8058L73.1962 147.432V15.1851Z" fill="#3BB4B4"/>
    <path d="M664.974 44.5455V73.926H694.364L664.974 44.5455Z" fill="#3BB4B4"/>
    <path d="M635.583 132.707L664.974 162.087V73.926L635.583 44.5455V132.707Z" fill="#3BB4B4"/>
    <path d="M753.145 44.5455V73.926V103.316H753.135H723.755V103.326V103.316V73.926H753.135L723.755 44.5455L694.364 73.926V103.316V132.707H723.755V132.697V132.707H753.135L782.526 103.316V73.926V44.5455V15.1551L753.145 44.5455Z" fill="#3BB4B4"/>
    <path d="M572.604 103.316L587.299 88.6212H572.604V73.926H601.994V73.916V73.926L631.385 44.5355H601.994V44.5455V44.5355H572.604L543.213 73.926V103.316V132.707H572.604H601.994L631.385 103.316H601.994H572.604Z" fill="#3BB4B4"/>
    <path d="M450.853 73.976V103.366L480.244 132.757V44.5355L450.853 73.976ZM509.914 44.5855L480.234 73.976H509.624V162.137L539.015 132.757V44.5355L509.914 44.5855Z" fill="#3BB4B4"/>
  </g>
  <defs>
    <clipPath id="clip0_4480_9835">
      <rect width="800" height="194.957" fill="white"/>
    </clipPath>
  </defs>
</svg>
